<?xml version="1.0" standalone="no"?>
<!DOCTYPE svg PUBLIC "-//W3C//DTD SVG 20010904//EN"
 "http://www.w3.org/TR/2001/REC-SVG-20010904/DTD/svg10.dtd">
<svg version="1.0" xmlns="http://www.w3.org/2000/svg"
 width="512.000000pt" height="512.000000pt" viewBox="0 0 512.000000 512.000000"
 preserveAspectRatio="xMidYMid meet">

<g transform="translate(0.000000,512.000000) scale(0.100000,-0.100000)"
fill="#000000" stroke="none">
<path d="M2500 5109 c-37 -15 -67 -47 -101 -106 -33 -58 -29 -56 -164 -73
-406 -50 -836 -233 -1159 -492 l-68 -55 -67 20 c-90 27 -132 19 -187 -37 -56
-55 -64 -97 -37 -187 l20 -67 -55 -68 c-264 -329 -440 -749 -495 -1179 -11
-82 -19 -112 -32 -120 -129 -78 -150 -104 -150 -185 0 -81 21 -107 150 -185
13 -8 21 -38 32 -120 55 -430 231 -850 495 -1179 l55 -68 -20 -67 c-27 -90
-19 -132 37 -187 55 -56 97 -64 187 -37 l67 20 68 -55 c329 -264 749 -440
1179 -495 82 -11 112 -19 120 -32 78 -129 104 -150 185 -150 80 0 114 27 185
150 8 13 36 21 120 32 432 55 848 230 1179 495 l68 55 67 -20 c90 -27 132 -19
187 37 56 55 64 97 37 187 l-20 67 55 68 c264 329 440 749 495 1179 11 84 19
112 32 120 123 71 150 105 150 185 0 80 -27 114 -150 185 -13 8 -21 36 -32
120 -55 430 -231 850 -495 1179 l-55 68 20 67 c27 90 19 132 -37 187 -54 55
-96 63 -185 38 l-66 -19 -100 75 c-164 124 -361 240 -408 240 -47 0 -86 -76
-59 -116 4 -7 53 -38 110 -71 106 -61 272 -173 272 -184 0 -3 -26 -14 -58 -23
l-58 -18 -88 56 c-201 130 -410 222 -639 281 -76 19 -149 35 -162 35 -20 0
-30 11 -55 60 -28 56 -29 60 -11 60 36 0 225 -39 311 -65 47 -13 97 -25 113
-25 61 0 91 84 44 128 -29 27 -249 85 -412 107 -171 24 -163 21 -184 64 -56
110 -143 155 -231 120z m252 -498 c114 -225 174 -352 163 -348 -9 4 -71 14
-138 23 -139 19 -380 14 -507 -10 -41 -7 -76 -13 -77 -12 -6 5 361 706 369
704 5 -2 90 -163 190 -357z m-502 109 c-25 -49 -35 -60 -55 -60 -47 0 -301
-71 -415 -116 -133 -53 -270 -124 -388 -202 l-84 -55 -59 18 c-32 10 -59 22
-59 26 0 4 55 44 121 89 197 132 428 239 634 295 125 34 260 63 303 64 l32 1
-30 -60z m-1005 -574 c197 -64 362 -119 365 -122 2 -3 -3 -10 -13 -15 -128
-72 -414 -358 -486 -486 -5 -10 -12 -15 -15 -12 -12 11 -245 743 -239 751 3 5
10 7 17 5 6 -2 173 -57 371 -121z m3019 116 c5 -8 -230 -741 -240 -752 -3 -2
-10 3 -15 13 -73 129 -357 413 -486 486 -10 5 -16 12 -13 14 3 3 104 37 225
77 121 39 285 93 365 120 163 54 157 53 164 42z m-1788 -510 c-3 -2 -46 -11
-96 -18 -186 -28 -384 -113 -538 -230 l-69 -52 -137 137 c-75 75 -136 140
-136 144 0 30 246 198 384 262 170 80 341 127 512 143 l79 7 3 -194 c1 -107 0
-196 -2 -199z m399 364 c183 -38 390 -122 542 -222 102 -66 202 -144 202 -159
1 -11 -260 -275 -272 -275 -4 0 -44 27 -89 61 -86 63 -222 134 -323 168 -69
22 -202 51 -239 51 -57 0 -56 -4 -56 209 l0 197 83 -8 c45 -4 114 -14 152 -22z
m-2060 -245 l18 -59 -55 -84 c-78 -118 -149 -255 -202 -388 -45 -114 -116
-368 -116 -415 0 -20 -11 -30 -60 -55 l-60 -30 0 22 c0 37 28 174 61 297 37
139 83 259 160 412 57 114 212 359 228 359 4 0 16 -27 26 -59z m3571 -14 c127
-178 229 -378 298 -587 41 -123 96 -357 96 -409 0 -20 -1 -20 -55 6 -35 17
-57 35 -60 48 -26 126 -70 289 -99 370 -48 132 -140 318 -216 435 l-62 94 18
58 c9 32 20 58 23 58 3 0 29 -33 57 -73z m-2855 -373 l137 -137 -52 -69 c-114
-149 -201 -350 -226 -518 -6 -41 -13 -85 -16 -97 -4 -23 -5 -23 -202 -23
l-198 0 8 83 c23 244 109 487 244 694 65 101 144 202 159 202 5 1 71 -60 146
-135z m2257 81 c199 -248 329 -565 349 -847 l6 -78 -196 0 c-211 0 -207 -1
-207 56 0 37 -29 170 -51 239 -34 101 -105 237 -168 323 -34 45 -61 85 -61 89
0 12 264 273 275 273 5 -1 29 -25 53 -55z m-1007 5 c105 -23 226 -69 299 -115
l55 -35 -575 1 -575 0 60 34 c227 131 477 170 736 115z m578 -351 c23 -29 41
-56 41 -60 0 -5 -105 -9 -232 -9 -288 0 -285 1 -438 -154 -63 -64 -117 -110
-137 -117 -55 -18 -89 2 -203 117 -153 155 -149 154 -438 154 -163 0 -233 3
-230 11 2 6 21 33 43 59 l40 49 757 1 756 0 41 -51z m-1181 -233 c15 -8 72
-60 127 -116 126 -127 156 -145 255 -145 99 0 129 18 255 145 55 56 112 108
127 116 21 11 81 14 291 14 l263 0 17 -35 c28 -58 24 -65 -36 -65 -59 0 -80
-14 -92 -62 -6 -22 -1 -33 23 -58 28 -28 36 -30 100 -30 l70 0 6 -31 c14 -72
10 -79 -39 -79 -84 0 -127 -41 -111 -105 8 -32 54 -55 111 -55 49 0 50 -2 39
-72 l-7 -38 -69 0 c-64 0 -72 -2 -100 -30 -24 -25 -29 -36 -23 -58 12 -48 33
-62 92 -62 52 0 63 -9 45 -36 -4 -7 -58 -13 -133 -16 -145 -7 -181 -19 -233
-80 -46 -53 -56 -102 -56 -270 l0 -144 -31 -18 c-38 -23 -85 -95 -94 -144 -4
-24 8 -111 34 -247 22 -115 37 -213 35 -216 -6 -10 -206 -56 -278 -65 -68 -8
-106 -36 -106 -79 0 -35 42 -75 77 -75 31 0 147 18 176 26 14 4 -32 -94 -162
-348 -99 -194 -185 -353 -191 -353 -9 0 -373 696 -367 701 1 1 36 -4 77 -12
107 -19 127 -18 155 11 54 53 16 118 -76 130 -73 9 -268 55 -274 64 -2 4 12
91 31 192 45 231 47 281 10 343 -15 26 -43 57 -61 69 l-35 22 0 143 c0 168
-10 217 -56 270 -53 62 -83 72 -226 72 -128 0 -148 6 -148 42 0 15 9 18 53 18
59 0 80 14 92 62 6 22 1 33 -23 58 -28 28 -36 30 -100 30 l-69 0 -7 31 c-14
70 -10 79 34 79 88 0 132 41 116 106 -8 31 -58 54 -116 54 -44 0 -48 9 -34 79
l7 31 69 0 c64 0 72 2 100 30 24 25 29 36 23 58 -12 48 -33 62 -92 62 -29 0
-53 4 -53 10 0 5 7 28 16 50 l16 40 265 0 c210 0 270 -3 291 -14z m-1334 -136
c-24 -127 -29 -368 -10 -507 9 -67 19 -129 23 -139 4 -11 -120 48 -348 164
-195 99 -354 186 -354 192 0 9 696 373 701 367 1 -1 -5 -36 -12 -77z m4121
-290 c0 -6 -159 -92 -354 -192 -271 -139 -352 -176 -347 -160 16 49 36 247 36
352 0 105 -20 303 -36 352 -5 15 77 -22 347 -160 195 -100 354 -186 354 -192z
m-3582 -155 c20 -190 107 -398 236 -569 l48 -64 -142 -142 -142 -142 -65 83
c-195 251 -307 527 -336 827 l-8 82 200 -2 201 -3 8 -70z m2755 -7 c-17 -180
-66 -354 -147 -524 -57 -119 -101 -190 -189 -303 l-65 -83 -142 142 -142 142
48 64 c123 163 214 376 234 549 12 105 -10 95 214 95 l197 0 -8 -82z m-3678
-200 c0 -46 53 -239 72 -263 14 -18 29 -25 54 -25 19 0 34 -5 34 -10 0 -6 15
-48 33 -94 l33 -83 -23 -27 c-13 -15 -23 -35 -23 -46 0 -24 69 -154 138 -258
l55 -84 -18 -59 c-10 -32 -22 -59 -26 -59 -16 0 -171 245 -228 359 -77 153
-123 273 -160 412 -33 123 -61 260 -61 297 l0 22 60 -30 c46 -23 60 -36 60
-52z m4295 -84 c-48 -237 -150 -503 -271 -703 -53 -88 -146 -221 -155 -221 -3
0 -14 26 -23 58 l-18 58 61 94 c133 204 241 464 295 709 14 62 26 114 28 116
2 1 26 14 53 28 64 32 64 30 30 -139z m-2907 -116 c8 -8 12 -46 12 -107 l0
-95 -36 35 c-38 36 -134 159 -134 172 0 12 145 8 158 -5z m1582 5 c0 -11 -105
-145 -139 -177 l-31 -30 0 95 c0 61 4 99 12 107 13 13 158 17 158 5z m-1578
-395 c40 -28 88 -62 106 -75 22 -17 32 -32 32 -51 0 -46 -63 -372 -72 -372
-16 0 -152 72 -223 117 -38 25 -101 70 -138 101 l-68 55 138 139 c76 76 141
138 145 138 4 0 40 -23 80 -52z m1641 -86 l138 -138 -49 -41 c-100 -84 -342
-233 -380 -233 -9 0 -72 326 -72 373 0 21 10 34 47 60 25 17 71 51 102 74 31
23 61 42 66 42 6 1 72 -61 148 -137z m-2322 -9 c95 -125 224 -254 345 -344 52
-40 93 -73 91 -76 -12 -11 -743 -241 -749 -235 -4 4 31 124 77 267 47 143 101
311 121 373 19 61 36 112 38 112 2 0 36 -44 77 -97z m2978 -278 c66 -204 117
-373 113 -377 -6 -6 -652 196 -736 230 -15 7 -2 20 78 80 121 91 256 226 347
348 40 52 73 93 75 91 2 -1 57 -169 123 -372z m-2752 -461 c111 -73 266 -152
400 -204 110 -43 354 -110 398 -110 20 0 30 -11 55 -60 l30 -60 -24 0 c-33 0
-202 35 -311 65 -204 55 -439 165 -634 295 -66 45 -121 85 -121 89 0 7 83 38
108 40 8 1 52 -24 99 -55z m2480 39 c29 -9 53 -20 53 -24 0 -4 -54 -43 -120
-87 -199 -133 -409 -231 -634 -297 -97 -28 -275 -65 -312 -65 l-24 0 30 60
c25 49 35 60 55 60 44 0 293 69 401 111 134 52 290 132 396 203 46 30 87 55
92 56 5 0 33 -8 63 -17z"/>
<path d="M1973 3925 c-31 -22 -36 -59 -15 -108 23 -53 45 -70 84 -70 63 0 86
69 48 142 -27 53 -72 67 -117 36z"/>
<path d="M3062 3933 c-19 -7 -52 -78 -52 -111 0 -62 70 -99 116 -61 27 22 55
95 48 124 -11 43 -65 67 -112 48z"/>
<path d="M1220 3167 c-57 -29 -52 -106 10 -137 77 -39 143 -16 143 50 0 37
-18 58 -68 81 -48 22 -53 22 -85 6z"/>
<path d="M3815 3166 c-65 -30 -89 -93 -50 -136 32 -36 140 -17 164 28 40 74
-34 144 -114 108z"/>
<path d="M1963 2862 c-155 -55 -242 -185 -231 -343 20 -267 333 -404 541 -236
36 30 62 63 87 112 31 61 35 76 35 149 0 98 -29 170 -95 236 -86 86 -229 121
-337 82z m172 -151 c77 -34 123 -116 111 -195 -19 -118 -143 -187 -253 -141
-50 21 -72 42 -94 90 -47 102 -2 210 106 252 44 17 85 15 130 -6z"/>
<path d="M2015 2595 c-49 -48 -16 -125 52 -125 37 0 73 38 73 77 0 32 -42 73
-75 73 -14 0 -37 -11 -50 -25z"/>
<path d="M2977 2870 c-97 -25 -181 -96 -226 -190 -21 -45 -26 -70 -26 -135 0
-71 4 -89 33 -147 57 -116 152 -179 281 -186 61 -3 87 0 133 18 75 28 150 96
185 168 24 50 28 68 28 147 0 101 -18 150 -81 223 -70 83 -219 129 -327 102z
m141 -153 c101 -37 149 -153 103 -252 -74 -162 -319 -126 -347 51 -21 134 117
247 244 201z"/>
<path d="M3005 2595 c-14 -13 -25 -36 -25 -50 0 -35 42 -75 78 -75 36 0 72 37
72 74 0 34 -41 76 -75 76 -14 0 -37 -11 -50 -25z"/>
<path d="M2405 2319 c-40 -22 -45 -40 -45 -146 l0 -103 -38 0 c-57 0 -123 -38
-149 -85 -18 -31 -23 -56 -23 -111 0 -93 27 -148 90 -181 42 -22 50 -23 320
-23 270 0 278 1 320 23 63 33 90 88 90 181 0 55 -5 80 -23 111 -26 47 -92 85
-149 85 l-38 0 0 99 c0 55 -3 107 -6 116 -10 24 -60 46 -89 39 -49 -12 -55
-35 -55 -204 0 -150 1 -157 23 -178 18 -17 37 -22 102 -24 l80 -3 0 -45 0 -45
-255 0 -255 0 0 45 0 45 80 3 c65 2 84 7 102 24 22 21 23 28 23 179 0 135 -2
160 -17 177 -22 26 -62 35 -88 21z"/>
<path d="M2376 1529 c-43 -34 -36 -73 26 -136 l52 -52 -52 -55 c-53 -56 -63
-86 -42 -126 5 -10 23 -22 38 -28 37 -13 75 5 128 59 l38 39 51 -49 c49 -48
61 -55 98 -52 28 2 57 38 57 72 0 23 -12 43 -49 82 l-49 52 49 53 c59 64 66
107 23 141 -42 33 -69 27 -130 -30 l-54 -52 -54 52 c-61 57 -88 63 -130 30z"/>
<path d="M1228 2089 c-61 -32 -64 -109 -4 -137 24 -12 34 -12 71 2 54 21 78
48 78 88 0 63 -71 86 -145 47z"/>
<path d="M3769 2092 c-50 -41 -17 -116 62 -142 35 -12 45 -12 67 1 58 32 53
111 -8 141 -46 22 -92 22 -121 0z"/>
</g>
</svg>
